#!OML:ASF F:\VICON\USERDATA\INSTALL\rory3\rory3.ASF
:FULLY-SPECIFIED
:DEGREES
177
root -6.42871 14.4699 -0.532261 13.2102 -4.03591 -4.59467
lowerback 30.1698 -0.425134 3.21436
upperback 7.44214 0.879187 4.8777
thorax -8.21367 0.354243 3.32733
lowerneck -15.5588 11.0583 -1.80615
upperneck 7.17547 16.6421 -11.7343
head 5.5882 7.3178 -1.75057
rclavicle -2.38542e-015 -2.54444e-014
rhumerus -31.3992 -31.0886 -59.0906
rradius 60.4555
rwrist 14.8216
rhand -36.7143 -20.4146
rfingers 7.12502
rthumb -9.79899 -50.1666
lclavicle -2.38542e-015 -2.54444e-014
lhumerus 10.4882 23.0117 67.0231
lradius 60.0631
lwrist -13.1739
lhand -29.8589 41.8962
lfingers 7.12502
lthumb -3.18122 71.8522
rfemur -28.5898 -0.804913 10.3198
rtibia 82.1587
rfoot -26.3513 14.86
rtoes -14.7053
lfemur -72.4435 5.76392 -16.912
ltibia 88.0218
lfoot -14.6184 -8.46368
ltoes -26.2959
178
root -6.41131 14.5105 -0.455714 13.1968 -3.9263 -4.64932
lowerback 30.0743 -0.414013 3.12484
upperback 7.32641 0.876899 4.94335
thorax -8.30261 0.355729 3.45539
lowerneck -15.2005 11.0719 -1.71612
upperneck 7.08479 16.6332 -11.9002
head 5.524 7.32468 -1.83376
rclavicle 1.35174e-014 3.18055e-014
rhumerus -31.7108 -30.7513 -58.8346
rradius 60.5681
rwrist 14.6935
rhand -36.6269 -18.8126
rfingers 7.12502
rthumb -9.71467 -48.5685
lclavicle 1.35174e-014 3.18055e-014
lhumerus 9.99538 23.1638 67.1358
lradius 60.2913
lwrist -13.1162
lhand -29.7828 40.1695
lfingers 7.12502
lthumb -3.10767 70.1266
rfemur -27.9788 -0.561292 10.3721
rtibia 81.4715
rfoot -25.7535 15.02
rtoes -15.0549
lfemur -71.8213 5.68935 -16.9487
ltibia 87.6894
lfoot -15.0018 -8.28604
ltoes -25.5996
179
root -6.39578 14.5599 -0.383483 13.1758 -3.83334 -4.67998
lowerback 29.933 -0.38001 3.0258
upperback 7.33892 0.882181 4.94393
thorax -8.22247 0.360302 3.50833
lowerneck -15.1222 11.0878 -1.52676
upperneck 6.99136 16.6286 -12.0967
head 5.51581 7.32321 -1.92427
rclavicle 2.82274e-014 -1.03368e-014
rhumerus -31.8427 -30.5539 -58.7767
rradius 60.7975
rwrist 14.553
rhand -36.5862 -16.5483
rfingers 7.12502
rthumb -9.6754 -46.3061
lclavicle 2.82274e-014 -1.03368e-014
lhumerus 9.64836 23.161 67.1271
lradius 60.6652
lwrist -12.8589
lhand -30.1489 42.5776
lfingers 7.12502
lthumb -3.46126 72.5292
rfemur -27.3832 -0.286632 10.4115
rtibia 80.7798
rfoot -25.1873 15.2756
rtoes -14.9905
lfemur -71.1156 5.72006 -17.0536
ltibia 87.277
lfoot -15.3514 -8.17817
ltoes -25.7481
180
root -6.37984 14.5997 -0.312912 13.198 -3.63393 -4.72745
lowerback 29.7478 -0.392028 3.06337
upperback 7.32557 0.86672 4.91887
thorax -8.14691 0.353579 3.45995
lowerneck -15.229 11.0221 -1.49861
upperneck 7.04129 16.5446 -12.0815
head 5.54551 7.27563 -1.92607
rclavicle 7.15625e-015 6.44062e-014
rhumerus -31.8593 -30.5608 -58.7786
rradius 60.8149
rwrist 14.5527
rhand -36.8138 -14.7818
rfingers 7.12502
rthumb -9.89498 -44.5293
lclavicle 7.15625e-015 6.44062e-014
lhumerus 9.6963 23.2569 67.2586
lradius 60.6589
lwrist -12.9928
lhand -30.2413 44.4224
lfingers 7.12502
lthumb -3.55053 74.3726
rfemur -26.9275 -0.129421 10.493
rtibia 80.1604
rfoot -24.4619 15.5398
rtoes -15.3617
lfemur -70.5434 5.63191 -17.0781
ltibia 86.9483
lfoot -15.5982 -8.24263
ltoes -25.2427
181
root -6.36637 14.6266 -0.244832 13.257 -3.38571 -4.87319
lowerback 29.7122 -0.465511 3.1831
upperback 7.11257 0.821367 4.90356
thorax -8.36833 0.332064 3.39333
lowerneck -15.531 11.005 -1.52865
upperneck 7.66438 16.5723 -11.7134
head 5.75519 7.25753 -1.77831
rclavicle -1.47101e-014 9.14409e-015
rhumerus -31.942 -30.5466 -58.7475
rradius 60.6043
rwrist 14.6073
rhand -36.9436 -13.6946
rfingers 7.12502
rthumb -10.0202 -43.436
lclavicle -1.47101e-014 9.14409e-015
lhumerus 9.40693 23.3934 67.1839
lradius 60.5237
lwrist -13.1417
lhand -30.1508 45.0997
lfingers 7.12502
lthumb -3.46311 75.0514
rfemur -26.5305 0.0696803 10.6711
rtibia 79.6295
rfoot -23.4385 16.0215
rtoes -14.6012
lfemur -70.1323 5.53801 -16.9595
ltibia 86.7777
lfoot -15.8785 -8.31271
ltoes -24.3402
182
root -6.35699 14.6539 -0.176392 13.4088 -3.17715 -5.12293
lowerback 29.5357 -0.507957 3.41977
upperback 6.9087 0.837917 4.87489
thorax -8.5115 0.33706 3.21856
lowerneck -16.0192 10.9087 -1.84556
upperneck 8.4974 16.5315 -10.9828
head 6.00185 7.20452 -1.47626
rclavicle -1.66979e-014 -4.37326e-014
rhumerus -32.1486 -30.4976 -58.7211
rradius 60.6026
rwrist 14.4415
rhand -36.9069 -14.1267
rfingers 7.12502
rthumb -9.98486 -43.8698
lclavicle -1.66979e-014 -4.37326e-014
lhumerus 9.0183 23.3617 66.9359
lradius 60.5083
lwrist -13.1257
lhand -29.9802 44.3523
lfingers 7.12502
lthumb -3.29833 74.3065
rfemur -26.1772 0.398986 10.9859
rtibia 79.1503
rfoot -22.5025 16.3591
rtoes -14.3563
lfemur -69.8973 5.54953 -16.7438
ltibia 86.6929
lfoot -16.1794 -8.38006
ltoes -24.2914
183
root -6.35206 14.6724 -0.112454 13.5593 -2.82987 -5.3326
lowerback 29.236 -0.570167 3.60392
upperback 6.83603 0.804763 4.9188
thorax -8.44498 0.320201 3.16913
lowerneck -16.3165 10.7938 -2.22516
upperneck 8.82307 16.4454 -10.537
head 6.07796 7.15079 -1.27793
rclavicle -7.95139e-015 -3.18055e-015
rhumerus -32.1558 -30.4797 -58.7167
rradius 60.6477
rwrist 14.3325
rhand -36.9803 -15.5232
rfingers 7.12502
rthumb -10.0556 -45.263
lclavicle -7.95139e-015 -3.18055e-015
lhumerus 8.84973 23.461 66.8619
lradius 60.5203
lwrist -13.1864
lhand -29.8325 44.0622
lfingers 7.12502
lthumb -3.15567 74.0186
rfemur -25.764 0.526353 11.3203
rtibia 78.7149
rfoot -22.2102 16.2013
rtoes -15.9191
lfemur -69.734 5.44557 -16.5287
ltibia 86.5979
lfoot -16.3195 -8.47461
ltoes -24.1793
184
root -6.34315 14.7041 -0.0463602 13.5781 -2.51177 -5.18122
lowerback 29.026 -0.608548 3.45837
upperback 6.84297 0.696184 4.85741
thorax -8.33253 0.273387 3.21731
lowerneck -16.5369 10.7596 -2.25827
upperneck 8.87296 16.4104 -10.4392
head 6.11659 7.1283 -1.23568
rclavicle 4.77083e-015 -2.74323e-014
rhumerus -32.0536 -30.5776 -58.7933
rradius 60.6848
rwrist 14.4103
rhand -36.9241 -16.6321
rfingers 7.12502
rthumb -10.0014 -46.3745
lclavicle 4.77083e-015 -2.74323e-014
lhumerus 8.91471 23.8406 66.9216
lradius 60.2744
lwrist -13.5066
lhand -29.872 43.6028
lfingers 7.12502
lthumb -3.19386 73.5587
rfemur -25.4744 0.583299 11.1729
rtibia 78.399
rfoot -21.4109 16.8256
rtoes -16.2198
lfemur -69.304 5.23316 -16.7352
ltibia 86.3494
lfoot -16.4859 -8.56114
ltoes -23.9527
185
root -6.33398 14.7451 0.018275 13.6675 -2.30688 -4.93268
lowerback 28.8318 -0.547363 3.12501
upperback 6.77391 0.665239 4.78157
thorax -8.31891 0.265966 3.33224
lowerneck -16.5527 10.6927 -2.13822
upperneck 8.80461 16.2902 -10.4617
head 6.10376 7.07586 -1.27377
rclavicle 7.15625e-015 -7.51406e-014
rhumerus -32.1608 -30.5868 -58.7038
rradius 60.7909
rwrist 14.4471
rhand -37.1597 -17.6603
rfingers 7.12502
rthumb -10.2287 -47.3916
lclavicle 7.15625e-015 -7.51406e-014
lhumerus 8.88555 23.9891 66.909
lradius 60.0987
lwrist -13.5625
lhand -30.0861 44.5943
lfingers 7.12502
lthumb -3.40063 74.5469
rfemur -25.5471 0.806953 10.9004
rtibia 78.264
rfoot -19.9276 17.63
rtoes -16.3119
lfemur -68.8806 5.15428 -17.1024
ltibia 86.0433
lfoot -16.5366 -8.60852
ltoes -23.6122
186
root -6.33186 14.7759 0.081304 13.7083 -2.0762 -4.882
lowerback 28.6135 -0.512065 2.97568
upperback 6.74874 0.652013 4.72343
thorax -8.24145 0.263388 3.35309
lowerneck -16.5729 10.6217 -2.18763
upperneck 8.80677 16.1764 -10.2679
head 6.08039 7.03322 -1.22166
rclavicle -1.47101e-014 -2.22639e-014
rhumerus -32.205 -30.6728 -58.7767
rradius 61.012
rwrist 14.7175
rhand -37.4063 -22.658
rfingers 7.12502
rthumb -10.4666 -52.3774
lclavicle -1.47101e-014 -2.22639e-014
lhumerus 8.59281 24.0421 66.7188
lradius 60.1695
lwrist -13.3168
lhand -30.5139 43.5716
lfingers 7.12502
lthumb -3.81368 73.5172
rfemur -25.4501 1.004 10.9548
rtibia 78.1377
rfoot -18.7789 17.8068
rtoes -17.2978
lfemur -68.5014 5.12514 -17.1943
ltibia 85.7847
lfoot -16.5471 -8.82953
ltoes -23.5122
187
root -6.32951 14.8117 0.152629 13.6187 -1.80611 -5.0148
lowerback 28.5074 -0.502474 3.01792
upperback 6.77344 0.670099 4.72564
thorax -8.16164 0.271937 3.32191
lowerneck -16.6703 10.5779 -2.21819
upperneck 8.73492 16.1158 -10.2354
head 6.06544 7.00648 -1.21182
rclavicle 1.59028e-015 -2.18663e-014
rhumerus -32.1764 -30.6741 -58.7908
rradius 61.0998
rwrist 14.8441
rhand -36.612 -17.7964
rfingers 7.12502
rthumb -9.70033 -47.5531
lclavicle 1.59028e-015 -2.18663e-014
lhumerus 7.96454 23.909 66.4801
lradius 60.9543
lwrist -13.4414
lhand -30.2374 44.9676
lfingers 7.12502
lthumb -3.54675 74.9179
rfemur -25.1771 1.17332 11.2513
rtibia 77.9648
rfoot -17.1754 18.2205
rtoes -15.6594
lfemur -67.9354 5.15321 -17.0875
ltibia 85.5142
lfoot -16.6736 -8.99961
ltoes -23.1847
188
root -6.32597 14.8604 0.22517 13.4948 -1.46069 -5.22768
lowerback 28.5887 -0.531153 3.09857
upperback 6.65138 0.679311 4.80311
thorax -8.34014 0.276281 3.3642
lowerneck -16.5521 10.5451 -2.18
upperneck 8.74091 16.0649 -10.2873
head 6.05396 6.98242 -1.24407
rclavicle -1.51076e-014 1.78906e-014
rhumerus -32.4379 -30.4095 -58.5274
rradius 61.1092
rwrist 14.5097
rhand -38.7162 -18.9114
rfingers 7.12502
rthumb -11.73 -48.563
lclavicle -1.51076e-014 1.78906e-014
lhumerus 7.00746 23.8033 66.1786
lradius 61.5924
lwrist -13.5027
lhand -29.8293 44.5629
lfingers 7.12502
lthumb -3.15261 74.5193
rfemur -25.2705 1.28464 11.6572
rtibia 77.9357
rfoot -14.5114 19.0821
rtoes -11.2221
lfemur -67.2742 5.16099 -16.8892
ltibia 85.167
lfoot -16.7489 -9.17651
ltoes -22.8701
189
root -6.32821 14.8887 0.28348 13.5229 -1.13361 -5.34545
lowerback 28.5974 -0.528801 3.09084
upperback 6.45876 0.697468 4.82312
thorax -8.56416 0.286618 3.38968
lowerneck -16.254 10.4978 -1.98643
upperneck 8.71683 15.9498 -10.3539
head 6.01351 6.93978 -1.31937
rclavicle -3.33958e-014 3.97569e-015
rhumerus -32.7164 -30.2173 -58.3468
rradius 61.1352
rwrist 14.2763
rhand -36.2813 -13.8222
rfingers 7.12502
rthumb -9.38127 -43.5935
lclavicle -3.33958e-014 3.97569e-015
lhumerus 6.48287 23.7282 65.9533
lradius 61.6401
lwrist -13.4308
lhand -29.8263 44.6437
lfingers 7.12502
lthumb -3.1497 74.6002
rfemur -25.1194 1.37657 11.9156
rtibia 77.8871
rfoot -12.7576 19.2692
rtoes -10.4671
lfemur -66.9793 5.08971 -16.7668
ltibia 84.8324
lfoot -16.8237 -9.33558
ltoes -22.8932
190
root -6.32439 14.9427 0.34827 13.5727 -0.839996 -5.24638
lowerback 28.3927 -0.495992 3.01229
upperback 6.41526 0.699297 4.72523
thorax -8.51254 0.289942 3.31994
lowerneck -15.91 10.4908 -1.53736
upperneck 8.38147 15.8429 -10.7224
head 5.91379 6.90886 -1.52931
rclavicle 1.11319e-014 2.94201e-014
rhumerus -32.7576 -30.3715 -58.3583
rradius 61.0386
rwrist 14.4795
rhand -37.9614 -26.0042
rfingers 7.12502
rthumb -11.002 -55.6959
lclavicle 1.11319e-014 2.94201e-014
lhumerus 6.14445 23.6177 65.6864
lradius 61.6101
lwrist -12.9936
lhand -30.3591 43.378
lfingers 7.12502
lthumb -3.66428 73.3263
rfemur -25.663 1.38004 11.9386
rtibia 78.0096
rfoot -9.12932 19.8544
rtoes -4.90167
lfemur -66.4545 4.8774 -16.8792
ltibia 84.2825
lfoot -16.8977 -9.4663
ltoes -22.2734
191
root -6.31607 14.9776 0.410011 13.5097 -0.44062 -5.15939
lowerback 28.2343 -0.549703 3.05504
upperback 6.51664 0.624721 4.6751
thorax -8.3155 0.25494 3.25846
lowerneck -16.2644 10.4769 -1.62493
upperneck 8.38063 15.8591 -10.7081
head 5.96467 6.90188 -1.49333
rclavicle -5.1684e-015 -1.31198e-014
rhumerus -32.4627 -30.4921 -58.4511
rradius 60.91
rwrist 14.4957
rhand -37.1562 -25.1129
rfingers 7.12502
rthumb -10.2253 -54.8444
lclavicle -5.1684e-015 -1.31198e-014
lhumerus 5.64513 23.2581 65.4655
lradius 62.4451
lwrist -12.6499
lhand -29.8667 45.9439
lfingers 7.12502
lthumb -3.18874 75.8998
rfemur -25.4559 1.16214 11.9688
rtibia 78.1855
rfoot -6.42982 19.6118
rtoes -3.00643
lfemur -65.9026 4.56475 -16.9804
ltibia 83.941
lfoot -17.0214 -9.4772
ltoes -21.926
